<svg xmlns="http://www.w3.org/2000/svg" xmlns:xlink="http://www.w3.org/1999/xlink" version="1.1" preserveAspectRatio="none" 
                viewBox="0 0 800 600" width="1600" height="1200">
                <path transform="translate(0, 0)" fill="#000000" fill-rule="evenodd" d="M226,101L226,280L253,321L339,367L339,101L334,102L231,99ZM339,390L205,280L205,87L297,63L302,63L375,81L393,88L393,281L339,390L213,93L213,280L247,332L339,382L339,93L334,93L213,93ZM438,305L446,306L456,311L463,358L473,366L497,376L497,374L497,383L524,427L552,441L557,445L568,451L571,452L568,453L596,468L438,305L309,297L307,298L309,298L309,297L323,228L322,231L317,236L324,237L325,238L328,240L339,250L309,282L323,228L385,335L391,340L393,341L401,343L408,349L411,353L414,355L422,358L425,362L425,364L425,367L425,368L433,373L435,373L434,375L433,376L466,404L467,404L471,412L385,335ZM419,222L427,230L434,261L496,295L550,381L561,397L561,403L419,222L324,237L333,259L338,265L324,237Z" />
            </svg>